<svg width="19" height="19" fill="none" xmlns="http://www.w3.org/2000/svg"><path d="M16.292 8.624h1.917C18.209 3.708 14.497 0 9.574 0v1.917c3.893 0 6.718 2.82 6.718 6.707z" fill="#0A223D"/><path d="M9.584 5.75c2.015 0 2.875.86 2.875 2.875h1.916c0-3.09-1.7-4.792-4.791-4.792V5.75zm3.279 5.216a.96.96 0 00-1.333.041l-2.293 2.359c-.552-.106-1.662-.451-2.804-1.591-1.143-1.143-1.489-2.256-1.591-2.804l2.356-2.294a.958.958 0 00.042-1.333L3.698 1.45a.958.958 0 00-1.333-.083L.285 3.15a.958.958 0 00-.277.622c-.014.24-.289 5.915 4.112 10.317 3.84 3.838 8.648 4.12 9.973 4.12.193 0 .312-.006.344-.008a.95.95 0 00.62-.28l1.783-2.08a.959.959 0 00-.082-1.333l-3.895-3.542z" fill="#0A223D"/></svg>