<svg width="19" height="19" viewBox="0 0 19 19" fill="none" xmlns="http://www.w3.org/2000/svg">
<path d="M16.2919 8.62404H18.2086C18.2086 3.70779 14.497 0 9.57402 0V1.91667C13.4668 1.91667 16.2919 4.73704 16.2919 8.62404Z" fill="#0A223D"/>
<path d="M9.5836 5.74998C11.599 5.74998 12.4586 6.6096 12.4586 8.62498H14.3753C14.3753 5.53435 12.6742 3.83331 9.5836 3.83331V5.74998ZM12.863 10.9662C12.6789 10.7988 12.4369 10.7096 12.1882 10.7172C11.9394 10.7249 11.7034 10.829 11.53 11.0074L9.23669 13.3659C8.68469 13.2604 7.57494 12.9145 6.4326 11.775C5.29027 10.6317 4.94431 9.5191 4.84177 8.97094L7.19831 6.67668C7.37696 6.50335 7.48115 6.2673 7.48884 6.01851C7.49653 5.76971 7.40712 5.52768 7.23952 5.34364L3.69848 1.44993C3.53081 1.26532 3.29778 1.15333 3.04888 1.13777C2.79997 1.1222 2.5548 1.20427 2.36544 1.36656L0.285854 3.15002C0.120168 3.3163 0.0212764 3.53762 0.00793687 3.77198C-0.00643813 4.01156 -0.280521 9.68681 4.12015 14.0894C7.95923 17.9275 12.7681 18.2083 14.0926 18.2083C14.2861 18.2083 14.405 18.2026 14.4366 18.2006C14.6709 18.1875 14.8921 18.0882 15.0576 17.9218L16.8401 15.8412C17.0025 15.652 17.0847 15.4069 17.0694 15.158C17.054 14.9091 16.9422 14.676 16.7577 14.5082L12.863 10.9662Z" fill="#0A223D"/>
</svg>
